<?xml version="1.0" standalone="no"?>
<!DOCTYPE svg PUBLIC "-//W3C//DTD SVG 20010904//EN"
 "http://www.w3.org/TR/2001/REC-SVG-20010904/DTD/svg10.dtd">
<svg version="1.0" xmlns="http://www.w3.org/2000/svg"
 width="327.000000pt" height="327.000000pt" viewBox="0 0 327.000000 327.000000"
 preserveAspectRatio="xMidYMid meet">

<g transform="translate(0.000000,327.000000) scale(0.100000,-0.100000)"
fill="#000000" stroke="none">
<path d="M1637 2913 c-16 -4 -17 -58 -15 -991 l3 -987 40 0 40 0 3 986 2 987
-22 6 c-13 3 -25 5 -28 5 -3 -1 -13 -3 -23 -6z"/>
<path d="M501 2695 c-167 -38 -296 -149 -337 -292 -25 -85 -16 -210 21 -291
55 -123 160 -192 423 -278 189 -62 239 -106 200 -177 -28 -53 -84 -77 -180
-77 -59 0 -84 5 -125 25 -52 26 -95 71 -113 119 -12 33 -20 33 -72 -3 -24 -16
-81 -50 -127 -77 -46 -26 -85 -54 -88 -61 -9 -24 41 -108 102 -169 110 -111
250 -163 437 -164 175 0 305 48 399 147 84 89 109 151 109 279 0 121 -26 190
-104 272 -76 81 -167 129 -381 203 -120 42 -155 63 -169 101 -23 66 31 118
123 118 77 0 134 -30 174 -91 18 -27 35 -49 39 -49 6 0 194 113 276 166 2 1
-7 21 -20 45 -29 58 -141 170 -198 199 -117 60 -272 82 -389 55z"/>
<path d="M2601 2694 c-160 -34 -275 -129 -334 -274 -14 -36 -17 -66 -15 -150
4 -91 8 -112 31 -158 36 -68 88 -126 152 -166 60 -39 104 -57 257 -107 189
-61 217 -81 220 -153 2 -68 -63 -106 -182 -106 -115 0 -196 45 -241 133 l-20
38 -32 -18 c-204 -121 -247 -147 -247 -152 0 -22 73 -126 124 -177 114 -114
259 -161 468 -152 97 5 125 10 193 38 89 35 148 79 205 151 54 68 73 141 68
255 -4 100 -28 164 -90 238 -46 56 -160 127 -264 165 -147 53 -258 102 -281
123 -24 22 -37 61 -28 87 9 29 78 61 131 61 82 -1 140 -36 195 -120 l16 -24
129 77 c71 42 135 81 143 86 12 8 9 19 -21 63 -88 132 -210 214 -361 243 -94
18 -132 18 -216 -1z"/>
<path d="M1467 2644 c-4 -4 -7 -328 -7 -720 l0 -714 24 -6 c14 -3 33 -4 43 -2
17 3 18 34 18 723 l0 720 -35 3 c-20 2 -39 0 -43 -4z"/>
<path d="M1785 2638 c-3 -7 -4 -332 -3 -723 l3 -710 28 1 c15 1 34 2 42 3 13
1 15 85 13 719 l-3 717 -38 3 c-24 2 -39 -1 -42 -10z"/>
<path d="M23 873 c-23 -4 -23 -7 -23 -152 0 -167 -6 -156 92 -181 23 -6 53
-18 66 -26 47 -30 15 -74 -54 -74 -37 0 -51 6 -75 29 l-29 29 0 -88 0 -89 43
-12 c95 -26 218 16 251 85 20 42 21 106 2 149 -24 57 -61 81 -199 132 -43 15
-48 20 -45 44 3 23 8 26 45 29 36 3 47 -1 68 -24 l25 -26 50 32 c27 18 50 36
50 41 0 17 -61 77 -94 93 -32 15 -118 20 -173 9z"/>
<path d="M614 855 c-131 -67 -193 -189 -164 -324 7 -34 17 -61 21 -61 5 0 9
-7 9 -15 0 -25 71 -95 124 -123 42 -21 65 -26 126 -26 61 0 84 5 126 26 47 25
124 97 124 117 0 5 -24 21 -53 36 l-52 27 -40 -36 c-36 -33 -44 -36 -99 -36
-102 0 -156 52 -156 150 0 145 157 213 261 114 20 -19 32 -24 53 -18 14 3 29
10 32 16 3 5 17 13 30 18 32 13 30 23 -13 69 -90 91 -225 119 -329 66z"/>
<path d="M1118 874 c-3 -3 -2 -17 3 -32 28 -85 130 -398 149 -459 l24 -73 78
0 c43 0 78 2 78 3 0 2 16 51 36 108 75 217 144 441 138 450 -6 11 -104 12
-120 1 -6 -4 -34 -79 -63 -167 -63 -189 -64 -191 -78 -173 -6 7 -33 86 -62
175 -32 100 -58 163 -67 167 -20 8 -109 8 -116 0z"/>
<path d="M1797 873 c-4 -3 -7 -132 -7 -285 l0 -278 59 0 c70 0 71 2 71 106 l0
74 49 0 c85 0 165 41 196 100 19 37 19 142 1 179 -22 41 -80 88 -123 100 -42
12 -236 15 -246 4z m243 -143 c11 -11 20 -31 20 -45 0 -41 -33 -65 -90 -65
l-50 0 0 65 0 65 50 0 c37 0 55 -5 70 -20z"/>
<path d="M2454 870 c-35 -14 -94 -81 -96 -109 -9 -131 21 -170 171 -221 86
-29 104 -49 77 -79 -31 -34 -100 -29 -138 9 -16 16 -32 30 -35 30 -4 0 -28
-14 -54 -31 -47 -30 -48 -31 -35 -57 64 -122 268 -148 366 -47 27 28 34 44 38
87 8 95 -36 155 -138 193 -114 42 -121 47 -118 74 3 22 9 26 42 29 31 3 44 -2
67 -24 l28 -26 50 33 c28 18 51 36 51 41 0 20 -88 95 -119 101 -45 9 -131 8
-157 -3z"/>
<path d="M2933 874 c-10 -4 -13 -71 -13 -285 l0 -279 136 0 c75 0 154 5 175
12 l39 11 0 73 0 74 -32 -20 c-25 -15 -51 -20 -110 -20 l-78 0 0 155 0 155 73
0 c54 0 80 -5 105 -20 18 -11 35 -20 37 -20 3 0 5 33 5 74 0 68 -2 74 -22 80
-30 9 -299 18 -315 10z"/>
</g>
</svg>
