<svg xmlns="http://www.w3.org/2000/svg" version="1.1" viewBox="-5.0 -10.0 110.0 135.0" fill="rgba(255,255,255,0.9)">
 <path d="m77.223 13.828c-6.3438-4.8047-14.039-8-22.531-8.8906-24.84-2.6172-47.094 15.398-49.711 40.238-1.043 9.9297 1.2109 19.438 5.875 27.449 0.42969 0.74609 0.17969 1.7031-0.56641 2.1328-0.74219 0.43359-1.6992 0.18359-2.1289-0.5625-4.9844-8.5664-7.3945-18.734-6.2812-29.348 2.7969-26.551 26.586-45.809 53.137-43.012 8.8125 0.92578 16.82 4.168 23.488 9.0586l-1.0078-3.5234c-0.23438-0.82812 0.24609-1.6914 1.0742-1.9297 0.82422-0.23438 1.6914 0.24609 1.9258 1.0742l2.3711 8.2969c0.12891 0.46094 0.042968 0.95703-0.23828 1.3438-0.28516 0.39062-0.72656 0.625-1.207 0.64453l-8.625 0.30859c-0.85938 0.03125-1.5859-0.64062-1.6133-1.5039-0.03125-0.85938 0.64062-1.582 1.5-1.6133 0 0 2.5938-0.09375 4.5391-0.16406zm-55.816 75.098 1.0039 3.5234c0.23828 0.82812-0.24219 1.6914-1.0703 1.9258-0.82812 0.23828-1.6914-0.24219-1.9258-1.0703l-2.3711-8.3008c-0.12891-0.46094-0.042969-0.95703 0.23828-1.3438 0.28125-0.38672 0.72656-0.625 1.207-0.64062l8.625-0.3125c0.85938-0.03125 1.582 0.64453 1.6133 1.5039 0.03125 0.85937-0.64062 1.582-1.5 1.6133 0 0-2.5977 0.09375-4.543 0.16406 6.3438 4.8047 14.043 8 22.535 8.8945 24.84 2.6133 47.094-15.402 49.707-40.238 1.0469-9.9258-1.2031-19.441-5.8711-27.453-0.43359-0.74219-0.17969-1.6992 0.5625-2.1328 0.74609-0.43359 1.6992-0.17969 2.1328 0.5625 4.9922 8.5664 7.3945 18.738 6.2773 29.348-2.793 26.555-26.582 45.809-53.133 43.016-8.8125-0.92969-16.824-4.1719-23.488-9.0586zm37.07-71.137c2.8633 0.75391 5.6094 1.8906 8.1719 3.3828l5.2578-2.3359c0.58984-0.26172 1.2773-0.13281 1.7344 0.32031l7.0664 7.0664c0.45312 0.45703 0.58203 1.1445 0.32031 1.7344 0 0-2.3281 5.2578-2.3281 5.2578 1.4922 2.5664 2.6289 5.3125 3.3867 8.1836l5.3633 2.0625c0.60156 0.23437 1 0.8125 1 1.457v9.9922c0 0.64453-0.39844 1.2227-1 1.457l-5.3633 2.0625c-0.75781 2.8633-1.9023 5.6094-3.3867 8.1719l2.3281 5.2578c0.26172 0.58984 0.13281 1.2812-0.32031 1.7344l-7.0664 7.0664c-0.45703 0.45703-1.1445 0.58594-1.7344 0.32422l-5.2578-2.3281c-2.5547 1.4922-5.3086 2.6289-8.1719 3.3828l-2.0664 5.3633c-0.23047 0.60547-0.80859 1-1.4531 1h-9.9922c-0.64844 0-1.2266-0.39453-1.457-1 0 0-2.0625-5.3594-2.0625-5.3594-2.8711-0.75781-5.6172-1.9023-8.1836-3.3906l-5.2578 2.332c-0.58984 0.26172-1.2812 0.13281-1.7344-0.32422l-7.0664-7.0664c-0.45703-0.45312-0.58594-1.1445-0.32031-1.7344l2.3359-5.2578c-1.4922-2.5547-2.6289-5.3047-3.3945-8.1719l-5.3633-2.0625c-0.60547-0.23438-1-0.8125-1-1.457v-9.9922c0-0.64453 0.39453-1.2227 1-1.457l5.3633-2.0625c0.76562-2.8711 1.9023-5.6172 3.3945-8.1797l-2.3359-5.2617c-0.26562-0.58594-0.13672-1.2773 0.32031-1.7344l7.0664-7.0664c0.45312-0.45312 1.1445-0.58203 1.7344-0.32031l5.2578 2.3359c2.5625-1.4922 5.3086-2.6289 8.1719-3.3828l2.0742-5.375c0.23047-0.60156 0.80859-1 1.457-1h9.9922c0.64453 0 1.2227 0.39844 1.457 1zm-2.6211 1.875-1.9688-5.1289h-7.8555l-1.9766 5.1289c-0.1875 0.48047-0.59766 0.83594-1.0977 0.95703-3.0977 0.73438-6.0547 1.9609-8.7695 3.6328-0.4375 0.26953-0.98047 0.30859-1.4531 0.097656l-5.0195-2.2305-5.5469 5.5508 2.2305 5.0195c0.20703 0.46875 0.17187 1.0117-0.097657 1.4492-1.6758 2.7188-2.8984 5.6758-3.6445 8.7852-0.12109 0.5-0.48047 0.90625-0.95703 1.0938l-5.1211 1.9688v7.8516l5.1211 1.9688c0.47656 0.1875 0.83594 0.59375 0.95703 1.0938 0.74609 3.0977 1.9688 6.0664 3.6445 8.7734 0.26953 0.4375 0.30469 0.98047 0.097657 1.4531l-2.2305 5.0195 5.5508 5.5508 5.0195-2.2227c0.46875-0.21094 1.0078-0.17187 1.4453 0.09375 2.7188 1.6641 5.6758 2.9023 8.7852 3.6367 0.5 0.12109 0.91016 0.47656 1.0938 0.95703l1.9727 5.1211h7.8516l1.9688-5.1211c0.18359-0.48047 0.59375-0.83594 1.0938-0.95703 3.1016-0.73438 6.0664-1.9609 8.7695-3.6328 0.4375-0.26953 0.98047-0.30859 1.4531-0.097657l5.0195 2.2227 5.5547-5.5547-2.2266-5.0195c-0.20703-0.46875-0.17188-1.0078 0.097657-1.4453 1.6641-2.7188 2.8984-5.6758 3.6367-8.7734 0.11719-0.5 0.47656-0.91016 0.95703-1.0977l5.1211-1.9688v-7.8516l-5.1211-1.9688c-0.48047-0.1875-0.83984-0.59766-0.95703-1.0977-0.73828-3.1094-1.9609-6.0625-3.6367-8.7812-0.26953-0.4375-0.30469-0.98047-0.097657-1.4492l2.2266-5.0195-5.5547-5.5508-5.0156 2.2305c-0.47266 0.21094-1.0156 0.17188-1.4531-0.097656-2.7188-1.6719-5.6719-2.8984-8.7734-3.6328-0.5-0.12109-0.91016-0.47656-1.0938-0.95703zm-5.9023 3.3555c14.855 0 26.902 12.031 26.902 26.887s-12.047 26.902-26.902 26.902c-14.859 0-26.891-12.047-26.891-26.902s12.031-26.887 26.891-26.887zm0 3.1172c-13.133 0-23.77 10.637-23.77 23.77s10.637 23.785 23.77 23.785 23.785-10.648 23.785-23.785c0-13.133-10.652-23.77-23.785-23.77zm-7.1992 24.406 7.8359-7.8359c-0.90625-3.2109-0.097656-6.8086 2.4297-9.3359 2.625-2.6289 6.4023-3.3984 9.707-2.3203 0.51563 0.16797 0.90625 0.59375 1.0312 1.1211s-0.03125 1.082-0.41406 1.4648l-5.0312 5.0273 0.61328 2.2734s2.2734 0.61328 2.2734 0.61328l5.0273-5.0312c0.38281-0.38281 0.94141-0.53906 1.4688-0.41406 0.52344 0.125 0.94922 0.51953 1.1172 1.0312 1.0781 3.3047 0.30859 7.082-2.3203 9.7109-2.5273 2.5234-6.1211 3.3359-9.3359 2.4258l-7.8359 7.8359c0.91016 3.2148 0.097657 6.8125-2.4297 9.3359-2.625 2.6289-6.4023 3.4023-9.707 2.3203-0.51562-0.16797-0.90625-0.58984-1.0312-1.1172-0.125-0.52734 0.03125-1.082 0.41406-1.4648 0 0 5.0273-5.0312 5.0273-5.0312l-0.60938-2.2734-2.2734-0.60938-5.0312 5.0273c-0.38281 0.38281-0.9375 0.54297-1.4648 0.41406-0.52734-0.125-0.94922-0.51563-1.1172-1.0312-1.082-3.3047-0.30859-7.082 2.3203-9.707 2.5234-2.5273 6.125-3.3359 9.3359-2.4297zm-0.17188 3.2344c-2.3164-0.94531-5.082-0.48047-6.9609 1.3984-1.0078 1.0117-1.6094 2.2695-1.8047 3.5781l3.3242-3.3281c0.39453-0.39453 0.96875-0.54688 1.5078-0.40234l4.0117 1.0742c0.53906 0.14453 0.96094 0.56641 1.1055 1.1055l1.0742 4.0117c0.14453 0.53906-0.007813 1.1133-0.40234 1.5078l-3.3281 3.3242c1.3086-0.19531 2.5703-0.79688 3.5781-1.8047 1.8789-1.8789 2.3477-4.6406 1.4023-6.9609-0.23828-0.58203-0.10547-1.2461 0.33984-1.6914l9.2109-9.2109c0.44141-0.44531 1.1094-0.57812 1.6914-0.33984 2.3164 0.94922 5.0742 0.48047 6.957-1.3984 1.0078-1.0078 1.6094-2.2656 1.8047-3.5742l-3.3281 3.3242c-0.39062 0.39453-0.96484 0.54688-1.5039 0.40625l-4.0156-1.0781c-0.53516-0.14453-0.95703-0.5625-1.1016-1.1016l-1.0742-4.0156c-0.14453-0.53516 0.007813-1.1094 0.40234-1.5039l3.3281-3.3281c-1.3086 0.19531-2.5703 0.80078-3.5781 1.8086-1.8789 1.8789-2.3438 4.6406-1.3984 6.9531 0.23828 0.58203 0.10547 1.25-0.33984 1.6953l-9.2109 9.207c-0.44141 0.44531-1.1094 0.57812-1.6914 0.34375z" fill-rule="evenodd"/>
</svg>
