<svg xmlns="http://www.w3.org/2000/svg" version="1.1" viewBox="-5.0 -10.0 110.0 135.0" fill="rgba(255,255,255,0.9)">
 <path d="m50.371 41.348c0-0.20312 0.035156-0.39844 0.10156-0.57812l-0.10156-6.6875c-2.6836-1.8047-4.6875-4.3281-5.8516-7.1914-1.2812-3.1484-1.5586-6.7109-0.61719-10.164 0.94141-3.457 2.9844-6.3867 5.6914-8.4531 2.7031-2.0664 6.0664-3.2695 9.6484-3.2695 3.582 0 6.9453 1.2031 9.6484 3.2695 2.7031 2.0664 4.75 4.9961 5.6914 8.4531 0.94141 3.4609 0.68359 7.0508-0.58594 10.23-1.1445 2.8594-3.1172 5.3867-5.7773 7.1875v7.2578c0 2.4453-1.0156 4.6406-2.6445 6.2305-1.6367 1.6016-3.8867 2.5859-6.3359 2.5859-2.4453 0-4.668-0.99219-6.2734-2.5977-1.6055-1.6055-2.5977-3.8242-2.5977-6.2734zm3.6562 1.7383c0.27344 0.81641 0.73438 1.5508 1.3281 2.1484 0.99219 0.99219 2.3672 1.6094 3.8867 1.6094 1.543 0 2.9531-0.61328 3.9727-1.6094 0.60938-0.59375 1.0781-1.3242 1.3516-2.1445h-10.539zm10.816-3.375v-1.8672h-11.051l0.027343 1.8672zm0-5.2422v-1.25c0-0.67188 0.39062-1.25 0.95703-1.5234 2.3555-1.4219 4.0898-3.5508 5.0703-5.9961 1.0039-2.5078 1.2031-5.3477 0.45312-8.0938-0.74219-2.7266-2.3516-5.0352-4.4766-6.6602-2.1289-1.625-4.7773-2.5703-7.6055-2.5703-2.8281 0-5.4805 0.94531-7.6055 2.5703-2.1289 1.625-3.7344 3.9336-4.4766 6.6602-0.74219 2.7266-0.52734 5.5352 0.48438 8.0156 1.0117 2.4844 2.8164 4.6445 5.2461 6.0742 0.52734 0.30859 0.82422 0.86328 0.83203 1.4336l0.019532 1.3398h0.92969v-10.574h-1.3008c-1.2617 0-2.4062-0.51172-3.2344-1.3398l0.003906-0.003907-0.003906-0.003906c-0.82812-0.82812-1.3398-1.9688-1.3398-3.2266 0-1.1992 0.46875-2.2969 1.2305-3.1133 0.035156-0.039062 0.070312-0.078125 0.10547-0.11719 0.82813-0.82812 1.9688-1.3398 3.2344-1.3398 1.2539 0 2.4258 0.52734 3.2773 1.3672 0.85547 0.83984 1.3984 1.9961 1.3984 3.2578v1.1445h2.6016v-1.1953c0-1.1992 0.46875-2.2969 1.2305-3.1133 0.035156-0.039063 0.070312-0.078126 0.10547-0.11719 0.82812-0.82812 1.9688-1.3398 3.2344-1.3398 1.2617 0 2.4062 0.51172 3.2344 1.3398l-0.003907 0.003906c0.82813 0.83203 1.3438 1.9727 1.3438 3.2305 0 1.2031-0.46875 2.3008-1.2344 3.1172-0.03125 0.039063-0.066407 0.078126-0.10547 0.11328-0.82812 0.82812-1.9727 1.3398-3.2344 1.3398h-1.1953v10.574h0.82031zm-3.9766 23.195h4.5v3.3359h-4.5c-0.93359 0-1.6875 0.75781-1.6875 1.6875 0 0.93359 0.75781 1.6875 1.6875 1.6875h4.5v3.2305h-4.5c-0.93359 0-1.6875 0.75781-1.6875 1.6875 0 0.93359 0.75781 1.6875 1.6875 1.6875h4.5v2.4023c0 0.93359 0.75781 1.6875 1.6875 1.6875 0.93359 0 1.6875-0.75781 1.6875-1.6875v-2.4023h3.2305v2.4023c0 0.93359 0.75781 1.6875 1.6875 1.6875 0.93359 0 1.6875-0.75781 1.6875-1.6875v-2.4023h3.4492c0.10547 0 0.21094-0.011719 0.3125-0.027344l-1.2031 4.7305h-38.176l-7.2812-28.609h16.773c0.93359 0 1.6875-0.75781 1.6875-1.6875 0-0.93359-0.75781-1.6875-1.6875-1.6875h-17.633l-4.7344-18.598c-0.16406-0.76172-0.83984-1.3281-1.6484-1.3281h-11.852c-0.93359 0-1.6875 0.75781-1.6875 1.6875 0 0.93359 0.75781 1.6875 1.6875 1.6875h10.539l4.6602 18.301c0.007812 0.24609 0.070312 0.48047 0.17578 0.6875l8.0547 31.648c0.19531 0.76562 0.88281 1.2734 1.6367 1.2734h40.797c0.80859 0 1.4844-0.57031 1.6484-1.3281l7.3281-28.781c0.16016-0.625 0.17578-1.2617 0.050782-1.8828-0.125-0.625-0.39062-1.207-0.78906-1.7227-0.39453-0.50781-0.89062-0.91797-1.4648-1.2031-0.57031-0.28516-1.1914-0.44141-1.8438-0.44141h-14.156c-0.93359 0-1.6875 0.75781-1.6875 1.6875 0 0.93359 0.75781 1.6875 1.6875 1.6875h14.156c0.13281 0 0.24609 0.023437 0.33984 0.070312 0.10156 0.050781 0.20703 0.14453 0.30469 0.26953 0.085937 0.10938 0.13672 0.21484 0.15625 0.3125 0.023437 0.10938 0.015625 0.24219-0.023438 0.39063l-5.0586 19.871c-0.28906-0.23828-0.66016-0.37891-1.0664-0.37891h-3.4492v-3.2305h3.4492c0.93359 0 1.6875-0.75781 1.6875-1.6875 0-0.93359-0.75781-1.6875-1.6875-1.6875h-3.4492v-3.3359h3.4492c0.93359 0 1.6875-0.75781 1.6875-1.6875 0-0.93359-0.75781-1.6875-1.6875-1.6875h-3.4492v-2.4023c0-0.93359-0.75781-1.6875-1.6875-1.6875-0.93359 0-1.6875 0.75781-1.6875 1.6875v2.4023h-3.2305v-2.4023c0-0.93359-0.75781-1.6875-1.6875-1.6875-0.93359 0-1.6875 0.75781-1.6875 1.6875v2.4023h-4.5c-0.93359 0-1.6875 0.75781-1.6875 1.6875 0 0.93359 0.75781 1.6875 1.6875 1.6875zm11.105 0v3.3359h-3.2305v-3.3359zm-3.2305 9.9453v-3.2305h3.2305v3.2305zm5.8516 20.934c0-0.85156-0.34375-1.6211-0.90234-2.1797-0.55859-0.55859-1.3281-0.90234-2.1797-0.90234-0.85156 0-1.6211 0.34375-2.1797 0.90234-0.55859 0.55859-0.90234 1.3281-0.90234 2.1797 0 0.85547 0.34375 1.6289 0.89844 2.1797l0.007813 0.007813c0.55469 0.55469 1.3242 0.89844 2.1797 0.89844 0.85156 0 1.6211-0.34375 2.1797-0.90234 0.55859-0.55859 0.90234-1.3281 0.90234-2.1797zm1.4844-4.5664c1.168 1.168 1.8906 2.7852 1.8906 4.5664s-0.72266 3.3984-1.8906 4.5664-2.7852 1.8906-4.5664 1.8906c-1.7734 0-3.3867-0.72266-4.5586-1.8867l-0.011719-0.011719c-1.168-1.1719-1.8906-2.7852-1.8906-4.5625 0-1.7773 0.72266-3.3984 1.8906-4.5664 1.168-1.168 2.7852-1.8906 4.5664-1.8906s3.3984 0.72266 4.5664 1.8906zm-25.605 4.5664c0-0.85156-0.34375-1.6211-0.90234-2.1797-0.55859-0.55859-1.3281-0.90234-2.1797-0.90234s-1.6289 0.34375-2.1836 0.89844l0.003907 0.003906c-0.55859 0.55859-0.90234 1.3281-0.90234 2.1797 0 0.85156 0.34375 1.6211 0.90234 2.1797 0.55859 0.55859 1.3281 0.90234 2.1797 0.90234s1.6289-0.34375 2.1797-0.89844l0.007813-0.007812c0.55469-0.55469 0.89844-1.3242 0.89844-2.1797zm1.4844-4.5664c1.168 1.168 1.8906 2.7852 1.8906 4.5664 0 1.7734-0.72266 3.3867-1.8867 4.5586l-0.011719 0.011719c-1.1719 1.168-2.7852 1.8906-4.5625 1.8906-1.7773 0-3.3984-0.72266-4.5664-1.8906-1.168-1.168-1.8906-2.7852-1.8906-4.5664s0.72266-3.3984 1.8906-4.5664l0.003907 0.003906 0.003906-0.003906c1.168-1.168 2.7812-1.8906 4.5625-1.8906 1.7773 0 3.3984 0.72266 4.5664 1.8906zm2.7109-63.453v-1.1445c0-0.32422-0.14844-0.62891-0.38281-0.85938-0.24219-0.23828-0.57422-0.39062-0.91797-0.39062-0.33203 0-0.62891 0.13281-0.84766 0.35156l-0.058593 0.058593c-0.17969 0.20703-0.28906 0.48438-0.28906 0.78906 0 0.33203 0.13281 0.63281 0.34766 0.84766l0.003907-0.003906c0.21484 0.21484 0.51562 0.35156 0.84766 0.35156h1.3008zm3.375 3.375v10.574h2.6016v-10.574zm5.9766-3.375h1.1953c0.32812 0 0.62891-0.13281 0.84766-0.35156l0.054688-0.054687c0.18359-0.21094 0.29687-0.48828 0.29687-0.79297 0-0.33594-0.13281-0.63281-0.34375-0.84766l-0.003906-0.003906-0.003906 0.003906c-0.21484-0.21484-0.51562-0.35156-0.84766-0.35156-0.32812 0-0.62891 0.13281-0.84766 0.35156l-0.058594 0.058594c-0.17969 0.20703-0.28906 0.48438-0.28906 0.78906z" fill-rule="evenodd"/>
<text x="0.0" y="117.5" font-size="5.0" font-weight="bold" font-family="Arbeit Regular, Helvetica, Arial-Unicode, Arial, Sans-serif" fill="#000000">Created by Arif</text><text x="0.0" y="122.5" font-size="5.0" font-weight="bold" font-family="Arbeit Regular, Helvetica, Arial-Unicode, Arial, Sans-serif" fill="#000000">from Noun Project</text></svg>
