<svg xmlns="http://www.w3.org/2000/svg" version="1.1" viewBox="-5.0 -10.0 110.0 135.0" fill="rgba(255,255,255,0.9)">
 <path d="m98.344 42.344-8.3594-8.3594v-0.003906c-0.29688-0.29297-0.69531-0.46094-1.1133-0.46094h-4.5625c-0.30859-1.7461-1.7617-3.0625-3.5312-3.1992-0.45312-0.47266-0.77344-1.0586-0.92969-1.6953 1.3555-1.5547 1.2578-3.9023-0.22656-5.3359-1.4844-1.4375-3.8359-1.457-5.3438-0.046874-0.64844-0.089844-1.2578-0.35938-1.7578-0.77734-0.21484-1.9961-1.9141-3.5-3.9219-3.4688-2.0078 0.035156-3.6562 1.5938-3.8047 3.5938-0.47266 0.45703-1.0547 0.77734-1.6914 0.93359-1.5352-1.3398-3.8438-1.2617-5.2891 0.17187-1.4414 1.4375-1.5273 3.7461-0.19531 5.2852-0.011719 0.65625-0.19922 1.2969-0.53906 1.8555-2.0312 0.14453-3.6055 1.8281-3.6094 3.8633-0.003906 2.0352 1.5664 3.7266 3.5938 3.875 0.45312 0.47266 0.77734 1.0586 0.93359 1.6953-1.168 1.3477-1.2656 3.3164-0.23828 4.7734 1.0273 1.4531 2.9141 2.0234 4.5742 1.3789v7.8633-0.003906c-3.2305-1.3047-6.5781-2.3047-10-2.9844l-10.012-3.1094c-0.25-0.082031-0.51953-0.09375-0.77734-0.042969-1.4453 0.28516-2.7461 0.51172-3.8555 0.66797-1.1094-0.15625-2.4023-0.37891-3.8555-0.66797h0.003907c-0.26172-0.050781-0.52734-0.035156-0.77734 0.042969l-10.012 3.1094c-10.391 2.2227-16.098 5.2422-19.078 10.09-2.8164 4.5859-2.8008 10.328-2.7773 17.598v1.5352-0.003906c0.007813 4.7109 3.832 8.5273 8.543 8.5273h62.988c0.42578 0 0.83594-0.17578 1.1328-0.48438s0.45703-0.72266 0.4375-1.1523c-0.078125-2.0781-0.10156-4.043-0.10547-5.8164h21.125c1.9258-0.003906 3.4922-1.5664 3.4922-3.4961v-34.641c0-0.41406-0.16406-0.81641-0.46094-1.1094zm-7.8984-3.4453 2.9844 2.9844h-2.9844zm-29.531 4.6406c-0.29297 0-0.55859-0.17969-0.66797-0.44922-0.11328-0.27344-0.054688-0.58594 0.15234-0.79297 0.87891-1.0586 1.0156-2.543 0.34375-3.7422-0.48047-1.1602-1.7344-3.1211-3.3984-3.1211-0.40234 0-0.73047-0.32422-0.73047-0.73047 0-0.40234 0.32812-0.73047 0.73047-0.73047 1.3672-0.125 2.5156-1.082 2.8867-2.4062 0.48047-1.1562 0.97656-3.4297-0.19531-4.6055-0.27734-0.28516-0.27344-0.74219 0.007813-1.0234s0.73828-0.28516 1.0234-0.007812c1.0586 0.875 2.5469 1.0117 3.7461 0.33984 1.1562-0.48047 3.1172-1.7344 3.1172-3.3984 0-0.40234 0.32812-0.73047 0.73047-0.73047s0.73047 0.32812 0.73047 0.73047c0 1.7852 2.4141 2.8789 2.8984 3.0781 1.6758 0.69531 3.1758 0.55469 4.1094-0.38672 0.28906-0.28125 0.74609-0.28125 1.0312 0 0.28125 0.28906 0.28125 0.74609 0 1.0312-0.875 1.0586-1.0117 2.5469-0.33984 3.7422 0.48047 1.1602 1.7344 3.1211 3.3984 3.1211 0.40234 0 0.73047 0.32812 0.73047 0.73047s-0.32812 0.73047-0.73047 0.73047c-1.3672 0.12891-2.5156 1.0859-2.8906 2.4102-0.48047 1.1562-0.97656 3.4297 0.19922 4.6055v-0.003906c0.27734 0.28906 0.27344 0.74219-0.007813 1.0234s-0.73828 0.28516-1.0234 0.011719c-1.0586-0.87891-2.5469-1.0117-3.7422-0.33984-1.1602 0.48047-3.1211 1.7344-3.1211 3.3984v-0.003907c0 0.40234-0.32812 0.73047-0.73047 0.73047s-0.73047-0.32812-0.73047-0.73047c-0.12891-1.3672-1.0859-2.5156-2.4062-2.8867-0.60938-0.25-1.25-0.41406-1.9023-0.48828-0.046874-0.007812-0.09375-0.011719-0.14453-0.015625-0.15625-0.015625-0.31641-0.023437-0.47266-0.023437-0.76562-0.042969-1.5156 0.21875-2.082 0.72656-0.14062 0.13672-0.32422 0.21094-0.51953 0.20703zm-22.414 8.332 2.2812 13.078-3.0859 3.625-3.0547-3.582 3.0078-13.027c0.11719 0.007812 0.23047 0 0.34766-0.019532 0.16406-0.023437 0.33594-0.046874 0.50391-0.070312zm-14.578 2.4531 9.7031-3.0156c0.30859 0.058594 0.60938 0.10938 0.90625 0.17188l-3.1328 13.578c-0.11328 0.48438 0.007812 0.99219 0.33203 1.3711l4.7656 5.5938v0.003906c0.29688 0.34766 0.73828 0.55078 1.1992 0.55078 0.46094 0 0.89844-0.20312 1.1953-0.55078l4.7656-5.5938v-0.003906c0.30469-0.35547 0.43359-0.82813 0.35547-1.2891l-2.4062-13.801 0.16406-0.03125 9.7031 3.0156c0.046875 0.015625 0.09375 0.027343 0.14062 0.035156 0.21094 0.042969 0.41406 0.089844 0.62109 0.13672l-14.613 29.426-14.543-29.406c0.23438-0.050781 0.46875-0.10156 0.70703-0.15234 0.042969-0.011719 0.089844-0.023437 0.13672-0.039062zm-19.57 26.191v-1.5391c-0.019531-7.0352-0.039062-12.117 2.3164-15.941 2.0977-3.4141 6.2617-5.8672 13.281-7.7539l15.137 30.609h-25.352c-2.9688-0.003906-5.375-2.4062-5.3828-5.375zm66.742 5.375h-30.938l15.207-30.633 0.003907-0.003906c2.3906 0.61328 4.7266 1.4414 6.9648 2.4805v20.359c0.003907 1.9297 1.5664 3.4922 3.4961 3.4961h5.2109c0.003907 1.3359 0.019532 2.7773 0.054688 4.3008zm24.219-7.4453h-29.48c-0.19141-0.003906-0.34375-0.15625-0.34766-0.34766v-30.898c0.57031 1.7656 2.3086 2.8789 4.1484 2.6602 1.8398-0.21484 3.2695-1.707 3.4102-3.5547 0.46875-0.45703 1.0547-0.77734 1.6914-0.92969 1.5312 1.3594 3.8594 1.293 5.3125-0.15234 1.4492-1.4453 1.5273-3.7734 0.17578-5.3125 0.011719-0.65234 0.19922-1.293 0.53906-1.8516 1.0547-0.078125 2.0312-0.57812 2.7031-1.3906h3.8281v6.7852h0.003906c0 0.41797 0.16406 0.82031 0.46094 1.1133 0.29297 0.29688 0.69531 0.46094 1.1133 0.46094h6.7852v33.066c0 0.19141-0.15234 0.34766-0.34375 0.35156zm-57.684-31.496h0.13672c3.8086 0.003906 7.4453-1.5781 10.043-4.3633 3.5859-4 5.0352-10.457 4.4297-19.746 0-0.039063-0.007812-0.082032-0.011719-0.12109-0.45703-3.5469-2.3516-6.75-5.2422-8.8516-2.7305-1.8945-5.9688-2.9102-9.2891-2.9102-3.3203 0-6.5586 1.0156-9.2891 2.9102-2.8906 2.1016-4.7852 5.3047-5.2383 8.8516-0.007813 0.039062-0.011719 0.082031-0.011719 0.12109-0.60547 9.2891 0.84375 15.746 4.4297 19.746h-0.003907c2.5977 2.7852 6.2383 4.3672 10.047 4.3633zm-11.336-23.84c0.92188-6.2227 6.3867-9 11.406-9 5.0156 0 10.477 2.7812 11.402 9 0.53125 8.25-0.69141 14.094-3.6328 17.375l-0.003906 0.003906c-2.0273 2.1172-4.8359 3.3164-7.7695 3.3164-2.9336 0-5.7422-1.1992-7.7695-3.3164-2.9414-3.2852-4.1641-9.1328-3.6328-17.379zm42.625 18.535c2.9102 0 5.5391-1.7539 6.6523-4.4453 1.1133-2.6875 0.49609-5.7852-1.5625-7.8438-2.0586-2.0586-5.1523-2.6758-7.8438-1.5625-2.6914 1.1133-4.4453 3.7383-4.4453 6.6523 0.003906 3.9727 3.2227 7.1953 7.1992 7.1992zm0-11.25c1.6367 0 3.1172 0.98828 3.7422 2.5039 0.62891 1.5117 0.28125 3.2539-0.87891 4.4141-1.1602 1.1562-2.9023 1.5039-4.4141 0.875-1.5156-0.625-2.5-2.1055-2.5-3.7422 0.003906-2.2383 1.8164-4.0469 4.0508-4.0508zm21.359 23.805c0.003906 0.41797-0.16406 0.82031-0.45703 1.1172-0.29687 0.29688-0.69922 0.46094-1.1172 0.46094h-15.785c-0.42188 0.011718-0.83594-0.14844-1.1406-0.44531-0.30469-0.29688-0.47656-0.70312-0.47656-1.1289s0.17188-0.83203 0.47656-1.1289c0.30469-0.29297 0.71875-0.45703 1.1406-0.44531h15.785c0.86719 0 1.5742 0.70312 1.5742 1.5703zm0 8.2227c0 0.86719-0.70312 1.5742-1.5742 1.5742h-15.785c-0.86719 0-1.5742-0.70703-1.5742-1.5742 0-0.87109 0.70703-1.5742 1.5742-1.5742h15.785c0.87109 0 1.5742 0.70312 1.5742 1.5703zm0 8.2227c0 0.86719-0.70312 1.5742-1.5742 1.5742h-15.785c-0.86719 0-1.5742-0.70703-1.5742-1.5742 0-0.87109 0.70703-1.5742 1.5742-1.5742h15.785c0.86719-0.003906 1.5742 0.69922 1.5742 1.5664z"/>
</svg>
