<svg xmlns="http://www.w3.org/2000/svg" version="1.1" viewBox="-5.0 -10.0 110.0 135.0" fill="rgba(255,255,255,0.9)">
 <path d="m59.652 95c-0.73047 0-1.3281-0.59766-1.3281-1.3281v-6.3633c0-0.73047 0.59766-1.3281 1.3281-1.3281h4.3203v-5.0352c0-0.73437 0.59766-1.3281 1.3281-1.3281h4.7266v-3.8047h-18.699v13.398c0 0.73437-0.59766 1.3281-1.3281 1.3281h-5.3789v0.85938c0 0.73437-0.59766 1.3281-1.3281 1.3281h-5.0391v0.94922c0 0.73438-0.59766 1.3281-1.3281 1.3281l-30.234-0.003906c-0.73047 0-1.3281-0.59766-1.3281-1.3281v-18.23c0-0.73438 0.59766-1.3281 1.3281-1.3281h3.207v-3.2266c0-0.73047 0.59766-1.3281 1.3281-1.3281h4.5586c0.35547 0 0.6875 0.13672 0.94141 0.38672 0.25391 0.25391 0.39063 0.58594 0.38672 0.9375v3.2305h9.3984v-3.2266c0-0.73047 0.59766-1.3281 1.3281-1.3281h4.5586c0.73047 0 1.3281 0.59766 1.3281 1.3281v3.2266h3.2031c0.73047 0 1.3281 0.59766 1.3281 1.3281v10.062h5.0391c0.73047 0 1.3281 0.59766 1.3281 1.3281v1.0391h4.0508v-13.391c0-0.73047 0.59766-1.3281 1.3281-1.3281h20.023v-11.309l-1.3594 2.2734c-0.23828 0.39844-0.67188 0.64453-1.1367 0.64453l-45.723 0.003906c-0.23828 0-0.47656-0.066406-0.67969-0.1875-0.62891-0.375-0.83203-1.1953-0.45703-1.8203l26.145-43.672c0.23828-0.39844 0.67578-0.64844 1.1406-0.64844h45.715c0.23828 0 0.47656 0.066406 0.67969 0.1875 0.30469 0.18359 0.51953 0.47266 0.60547 0.81641 0.085938 0.34375 0.03125 0.69922-0.14844 1.0078l-14.148 23.637v16.684c-0.003906 0.59375-0.42188 1.1328-1.0039 1.2773l-0.13672 0.035156v17.531h4.7227c0.35547 0.003907 0.69141 0.14062 0.94141 0.39062 0.25 0.25391 0.38672 0.58594 0.38672 0.94141v5.0352h4.3203c0.73047 0 1.3281 0.59766 1.3281 1.3281v6.3633c0 0.73438-0.59766 1.3281-1.3281 1.3281zm1.332-2.6562h27.574v-3.707h-27.574zm-52.961 0h27.578v-15.574h-27.578zm30.23-2.2812h3.707v-1.8984h-3.707zm28.379-4.0859h16.281l0.003907-3.707h-16.285zm6.0547-6.3633h4.1797l-0.003907-17.516h-4.1797zm-43.523-5.5h1.8984v-1.8984h-1.8984zm-16.609 0h1.8984v-1.8984h-1.8984zm41.832-12.004h12.391l3.6328-6.0781h-12.379zm-15.117 0h12.023l3.6367-6.0781h-12.02zm-15.117 0h12.02l3.6367-6.0781h-12.012zm47.312-2.668h6.5352l0.003906-10.922zm-11.844-6.0664h12.379l3.6367-6.0781h-12.379zm-15.121 0h12.02l3.6406-6.0781h-12.023zm-15.117 0h12.02l3.6367-6.0781h-12.02zm35.473-8.7383h12.383l3.6406-6.0781-12.387 0.003906zm-15.125 0h12.023l3.6328-6.0781h-12.02zm-15.117 0h12.02l3.6367-6.0781-12.02 0.003906zm35.461-8.7305h12.391l3.6328-6.0781h-12.383zm-15.117 0h12.02l3.6367-6.0781h-12.016zm-15.117 0h12.02l3.6367-6.0781h-12.016zm35.465-8.7344h12.391l3.6328-6.0781h-12.387zm-15.117 0h12.02l3.6367-6.0781h-12.02zm-15.117 0h12.02l3.6367-6.0781h-12.016zm-26.211 5.5469c-0.73047 0-1.3281-0.59766-1.3281-1.3281v-2.1797l-0.15625-0.023438c-1.7266-0.24609-3.375-0.92969-4.7656-1.9766l-0.125-0.09375-1.5508 1.5508c-0.25 0.23828-0.57812 0.37109-0.92188 0.37109-0.34766 0-0.67578-0.13281-0.92188-0.37109-0.25781-0.24609-0.40234-0.57812-0.41016-0.92969-0.007813-0.35547 0.125-0.69141 0.37109-0.94922l1.5469-1.5508-0.09375-0.125c-1.0469-1.3945-1.7305-3.0391-1.9766-4.7656l-0.015625-0.16016h-2.1836c-0.73047 0-1.3281-0.59766-1.3281-1.3281s0.59766-1.3281 1.3281-1.3281h2.1836l0.023437-0.15625c0.24609-1.7227 0.92969-3.3711 1.9766-4.7656l0.09375-0.125-1.5508-1.5508c-0.49219-0.51172-0.49609-1.3242 0-1.8398 0.25-0.26562 0.59375-0.41016 0.96094-0.41016 0.34375 0 0.67188 0.13281 0.92188 0.37109l1.5508 1.5469 0.125-0.09375c1.3945-1.0469 3.0391-1.7305 4.7656-1.9766l0.15625-0.023438-0.003906-2.1797c0-0.73047 0.59766-1.3281 1.3281-1.3281s1.3281 0.59766 1.3281 1.3281v2.1836l0.15625 0.023437c1.7227 0.24609 3.3711 0.92969 4.7656 1.9766l0.125 0.09375 1.5898-1.5898c0.24609-0.23828 0.57422-0.36719 0.92188-0.36719 0.36328 0 0.70703 0.14453 0.96094 0.41016 0.24609 0.25781 0.37891 0.59375 0.37109 0.94922-0.007813 0.35547-0.15234 0.6875-0.41016 0.93359l-1.5469 1.5508 0.09375 0.125c1.0469 1.3945 1.7305 3.0391 1.9766 4.7656l0.023438 0.15625h2.1836c0.73047 0 1.3281 0.59766 1.3281 1.3281 0 0.73047-0.59766 1.3281-1.3281 1.3281l-2.1875-0.007812-0.023438 0.15625c-0.24609 1.7227-0.92969 3.3711-1.9766 4.7656l-0.09375 0.125s1.5742 1.5742 1.5898 1.5898c0.24219 0.25391 0.375 0.58984 0.36719 0.94531-0.007813 0.35547-0.15234 0.6875-0.41016 0.93359-0.25 0.23828-0.57422 0.37109-0.92187 0.37109-0.36719 0-0.70703-0.14453-0.96094-0.41016l-1.5508-1.5469-0.125 0.09375c-1.3945 1.0469-3.0391 1.7305-4.7656 1.9766l-0.15625 0.023438v2.1836c0.003906 0.72656-0.58984 1.3242-1.3242 1.3242zm0-21.645c-4.2891 0.007812-7.7812 3.4961-7.7852 7.7852 0 4.293 3.4922 7.7852 7.7852 7.7852s7.7852-3.4922 7.7852-7.7852-3.4922-7.7852-7.7852-7.7852z"/>
</svg>
